<svg viewBox="0 0 143 32" fill="none" xmlns="http://www.w3.org/2000/svg"> <path d="M45.9938 4.10193H54.426C57.1221 4.10193 59.1202 4.80939 60.4204 6.22434C61.7397 7.62015 62.3994 9.36966 62.3994 11.473C62.3994 13.5571 61.7207 15.278 60.3631 16.6356C59.0246 17.974 56.9213 18.6433 54.0532 18.6433H51.3572V25.6989H45.9938V4.10193ZM51.3572 13.8249H54.3113C55.1335 13.8249 55.7645 13.605 56.2043 13.1652C56.6632 12.7063 56.8926 12.1231 56.8926 11.4156C56.8926 10.7273 56.6632 10.1537 56.2043 9.69476C55.7645 9.23586 55.1718 9.00641 54.426 9.00641H51.3572V13.8249ZM69.7093 4.13224L69.6002 25.6989L64.5523 25.7275V4.13224H69.7093ZM80.6455 25.7275C78.1025 25.7275 76.0279 24.9245 74.4217 23.3183C72.8348 21.6931 72.0412 19.7141 72.0412 17.3813C72.0412 15.0485 72.8348 13.0695 74.4217 11.4443C76.0279 9.8191 78.1025 8.98315 80.6455 8.98315C83.2268 8.98315 85.3015 9.8191 86.8694 11.4443C88.4755 13.0505 89.2786 15.0295 89.2786 17.3813C89.2786 19.7332 88.4755 21.7122 86.8694 23.3183C85.2824 24.9245 83.2078 25.7275 80.6455 25.7275ZM80.6455 20.9952C81.659 20.9952 82.5098 20.651 83.1982 19.9626C83.8865 19.236 84.2307 18.3661 84.2307 17.3526C84.2307 16.3392 83.8771 15.4884 83.1695 14.8C82.4811 14.1117 81.6399 13.7675 80.6455 13.7675C79.6513 13.7675 78.8099 14.1213 78.1216 14.8287C77.4332 15.517 77.0891 16.3584 77.0891 17.3526C77.0891 18.3661 77.4332 19.236 78.1216 19.9626C78.8099 20.651 79.6513 20.9952 80.6455 20.9952ZM99.6076 25.7275C97.0646 25.7275 94.99 24.9245 93.3838 23.3183C91.7968 21.6931 91.0033 19.7141 91.0033 17.3813C91.0033 15.0485 91.7968 13.0695 93.3838 11.4443C94.99 9.8191 97.0802 8.98315 99.6232 8.98315C102.205 8.98315 104.264 9.8191 105.831 11.4443C107.438 13.0505 108.241 15.0295 108.241 17.3813C108.241 19.7332 107.438 21.7122 105.831 23.3183C104.244 24.9245 102.17 25.7275 99.6076 25.7275ZM99.6076 20.9952C100.621 20.9952 101.472 20.651 102.16 19.9626C102.849 19.236 103.193 18.3661 103.193 17.3526C103.193 16.3392 102.839 15.4884 102.132 14.8C101.443 14.1117 100.602 13.7675 99.6076 13.7675C98.6134 13.7675 97.772 14.1213 97.0837 14.8287C96.3954 15.517 96.0512 16.3584 96.0512 17.3526C96.0512 18.3661 96.3954 19.236 97.0837 19.9626C97.772 20.651 98.6134 20.9952 99.6076 20.9952ZM123.681 13.1078L116.826 21.1386H123.997V25.7275L109.828 25.6989V21.7409L116.912 13.6528H110.144V9.06377L123.681 9.00641V13.1078ZM138.042 10.8994V8.98315H142.803V25.6989H137.985L138.042 23.9206C136.742 25.1062 135.183 25.6989 133.367 25.6989C131.13 25.6989 129.275 24.8958 127.803 23.2896C126.35 21.7026 125.623 19.7141 125.623 17.324C125.623 14.9147 126.35 12.9453 127.803 11.4156C129.256 9.84778 131.144 8.98315 133.4 8.98315C135.236 8.98315 136.761 9.67569 138.042 10.8994ZM137.985 17.3526C137.985 16.3392 137.631 15.4788 136.924 14.7713C136.197 14.0447 135.327 13.6814 134.314 13.6814C133.262 13.6814 132.392 14.0447 131.704 14.7713C131.015 15.4788 130.671 16.3392 130.671 17.3526C130.671 18.4042 131.015 19.2839 131.704 19.9913C132.43 20.718 133.3 21.0812 134.314 21.0812C135.327 21.0812 136.197 20.718 136.924 19.9913C137.631 19.2839 137.985 18.4042 137.985 17.3526Z" fill="#1E293B"/> <path fill-rule="evenodd" clip-rule="evenodd" d="M0 0.540951V8.23841C4.07362 9.35589 6.02184 10.8103 6.02711 12.9238C6.03239 15.0374 6.02711 32 6.02711 32H13.7284V26.9799C13.7284 26.9799 13.7284 28.3186 19.923 28.3186C26.1175 28.3186 33.484 24.1353 33.484 14.2625C33.484 4.38966 25.7826 1.04296 19.923 0.540951C14.0632 0.0389423 10.0452 4.55701 10.0452 4.55701C6.44853 1.28239 4.24454 0.432836 0 0.540951ZM27.9033 14.614C27.9033 18.6187 24.6551 21.8652 20.6484 21.8652C16.6416 21.8652 13.3935 18.6187 13.3935 14.614C13.3935 10.6092 16.6416 7.36276 20.6484 7.36276C24.6551 7.36276 27.9033 10.6092 27.9033 14.614Z" fill="#60A5FA"/> <path fill-rule="evenodd" clip-rule="evenodd" d="M35.214 14.5861C35.214 22.6418 28.6928 29.1723 20.6484 29.1723C12.6041 29.1723 6.08282 22.6418 6.08282 14.5861C6.08282 6.53044 12.6041 0 20.6484 0C28.6928 0 35.214 6.53044 35.214 14.5861ZM27.9033 14.6139C27.9033 18.6187 24.6552 21.8651 20.6484 21.8651C16.6417 21.8651 13.3935 18.6187 13.3935 14.6139C13.3935 10.6092 16.6417 7.36274 20.6484 7.36274C24.6552 7.36274 27.9033 10.6092 27.9033 14.6139Z" fill="#3B82F6"/> </svg>